<svg xmlns="http://www.w3.org/2000/svg" viewBox="0 0 960 540" role="img" aria-hidden="true">
  <defs>
    <linearGradient id="mobility-bg" x1="0" x2="1" y1="0" y2="1">
      <stop offset="0" stop-color="#f8f4eb"/>
      <stop offset="1" stop-color="#e8dfcf"/>
    </linearGradient>
  </defs>
  <rect width="960" height="540" rx="34" fill="url(#mobility-bg)"/>
  <circle cx="188" cy="128" r="88" fill="#6d876a" opacity=".28"/>
  <circle cx="812" cy="436" r="96" fill="#c08b54" opacity=".2"/>
  <rect x="104" y="92" width="752" height="356" rx="34" fill="#fffaf2" stroke="#355447" stroke-opacity=".1"/>
  <path d="M484 164c-33 0-54 28-54 60s21 62 54 62c32 0 53-30 53-62s-21-60-53-60Z" fill="#355447"/>
  <path d="M396 414c17-76 49-112 88-112s71 36 88 112" fill="none" stroke="#355447" stroke-linecap="round" stroke-width="34"/>
  <path d="M384 256c-44 32-72 70-86 120" fill="none" stroke="#6d876a" stroke-linecap="round" stroke-width="24"/>
  <path d="M582 256c44 32 72 70 86 120" fill="none" stroke="#6d876a" stroke-linecap="round" stroke-width="24"/>
  <path d="M396 194c22 18 48 28 88 28 38 0 66-10 86-28" fill="none" stroke="#c08b54" stroke-linecap="round" stroke-width="18"/>
</svg>

