<svg xmlns="http://www.w3.org/2000/svg" viewBox="0 0 960 540" role="img" aria-hidden="true">
  <defs>
    <linearGradient id="desk-bg" x1="0" x2="1" y1="0" y2="1">
      <stop offset="0" stop-color="#f7f2e9"/>
      <stop offset="1" stop-color="#eadfca"/>
    </linearGradient>
  </defs>
  <rect width="960" height="540" rx="34" fill="url(#desk-bg)"/>
  <rect x="106" y="92" width="748" height="356" rx="34" fill="#fffaf2" stroke="#355447" stroke-opacity=".1"/>
  <circle cx="796" cy="132" r="74" fill="#6d876a" opacity=".18"/>
  <path d="M604 318h170" stroke="#355447" stroke-linecap="round" stroke-width="22"/>
  <path d="M656 318v94" stroke="#355447" stroke-linecap="round" stroke-width="20"/>
  <path d="M722 318v94" stroke="#355447" stroke-linecap="round" stroke-width="20"/>
  <path d="M438 166c-34 0-54 28-54 58 0 31 20 58 54 58 32 0 52-27 52-58 0-30-20-58-52-58Z" fill="#355447"/>
  <path d="M422 284c-12 42-34 72-72 100" fill="none" stroke="#c08b54" stroke-linecap="round" stroke-width="24"/>
  <path d="M452 294c44 12 88 18 150 18" fill="none" stroke="#355447" stroke-linecap="round" stroke-width="30"/>
  <path d="M452 310c-6 54-8 96-8 124" fill="none" stroke="#355447" stroke-linecap="round" stroke-width="26"/>
  <path d="M432 428c-26 6-50 6-74 0" fill="none" stroke="#6d876a" stroke-linecap="round" stroke-width="18"/>
</svg>
