<svg xmlns="http://www.w3.org/2000/svg" viewBox="0 0 960 540" role="img" aria-hidden="true">
  <defs>
    <linearGradient id="breath-bg" x1="0" x2="1" y1="0" y2="1">
      <stop offset="0" stop-color="#f6f1e6"/>
      <stop offset="1" stop-color="#ebe1d0"/>
    </linearGradient>
  </defs>
  <rect width="960" height="540" rx="34" fill="url(#breath-bg)"/>
  <circle cx="760" cy="116" r="90" fill="#6d876a" opacity=".16"/>
  <circle cx="176" cy="430" r="120" fill="#c08b54" opacity=".16"/>
  <rect x="106" y="90" width="748" height="360" rx="34" fill="#fffaf2" stroke="#355447" stroke-opacity=".1"/>
  <path d="M484 164c-34 0-56 29-56 62s22 62 56 62 56-29 56-62-22-62-56-62Z" fill="#355447"/>
  <path d="M414 422c8-80 31-126 70-126s62 46 70 126" fill="none" stroke="#355447" stroke-linecap="round" stroke-width="36"/>
  <ellipse cx="406" cy="292" rx="84" ry="46" fill="none" stroke="#6d876a" stroke-width="16"/>
  <ellipse cx="562" cy="292" rx="84" ry="46" fill="none" stroke="#6d876a" stroke-width="16"/>
  <path d="M356 292h256" stroke="#c08b54" stroke-dasharray="14 16" stroke-linecap="round" stroke-width="10"/>
</svg>

